<svg xmlns="http://www.w3.org/2000/svg" viewBox="0 0 48 48" width="48px" height="48px"><linearGradient id="Chp4UvMsoJfZ2Nwhfp2Awa" x1="5.789" x2="31.324" y1="15.644" y2="29.221" gradientUnits="userSpaceOnUse"><stop offset="0" stop-color="#4caf50"/><stop offset=".489" stop-color="#4aaf50"/><stop offset=".665" stop-color="#43ad50"/><stop offset=".79" stop-color="#38aa50"/><stop offset=".892" stop-color="#27a550"/><stop offset=".978" stop-color="#11a050"/><stop offset="1" stop-color="#0a9e50"/></linearGradient><path fill="url(#Chp4UvMsoJfZ2Nwhfp2Awa)" d="M31.33,29.21l-8.16,14.77C12.51,43.55,4,34.76,4,24C4,12.96,12.96,4,24,4v11 c-4.97,0-9,4.03-9,9c0,4.97,4.03,9,9,9C27.03,33,29.7,31.51,31.33,29.21z"/><linearGradient id="Chp4UvMsoJfZ2Nwhfp2Awb" x1="33.58" x2="33.58" y1="44" y2="15.203" gradientUnits="userSpaceOnUse"><stop offset="0" stop-color="#ffd747"/><stop offset=".482" stop-color="#ffd645"/><stop offset=".655" stop-color="#fed43e"/><stop offset=".779" stop-color="#fccf33"/><stop offset=".879" stop-color="#fac922"/><stop offset=".964" stop-color="#f7c10c"/><stop offset="1" stop-color="#f5bc00"/></linearGradient><path fill="url(#Chp4UvMsoJfZ2Nwhfp2Awb)" d="M44,24c0,11.05-8.95,20-20,20h-0.84l8.17-14.79C32.38,27.74,33,25.94,33,24 c0-4.97-4.03-9-9-9V4c7.81,0,14.55,4.48,17.85,11C43.21,17.71,44,20.76,44,24z"/><linearGradient id="Chp4UvMsoJfZ2Nwhfp2Awc" x1="36.128" x2="11.574" y1="5.703" y2="21.046" gradientUnits="userSpaceOnUse"><stop offset="0" stop-color="#f7572f"/><stop offset=".523" stop-color="#f7552d"/><stop offset=".712" stop-color="#f75026"/><stop offset=".846" stop-color="#f7461b"/><stop offset=".954" stop-color="#f7390a"/><stop offset="1" stop-color="#f73100"/></linearGradient><path fill="url(#Chp4UvMsoJfZ2Nwhfp2Awc)" d="M41.84,15H24c-4.97,0-9,4.03-9,9c0,1.49,0.36,2.89,1.01,4.13H16L7.16,13.26H7.14 C10.68,7.69,16.91,4,24,4C31.8,4,38.55,8.48,41.84,15z"/><linearGradient id="Chp4UvMsoJfZ2Nwhfp2Awd" x1="19.05" x2="28.95" y1="19.05" y2="28.95" gradientUnits="userSpaceOnUse"><stop offset="0" stop-color="#2aa4f4"/><stop offset="1" stop-color="#007ad9"/></linearGradient><path fill="url(#Chp4UvMsoJfZ2Nwhfp2Awd)" d="M31,24c0,3.867-3.133,7-7,7s-7-3.133-7-7s3.133-7,7-7S31,20.133,31,24z"/></svg>