<svg width="1418" height="300" viewBox="0 0 1418 300" fill="none" xmlns="http://www.w3.org/2000/svg">
<path d="M439.46 194.38C447.78 194.38 453.847 193.427 457.66 191.52C461.473 189.44 463.38 185.973 463.38 181.12C463.38 176.613 461.3 172.887 457.14 169.94C453.153 166.993 446.48 163.787 437.12 160.32C431.4 158.24 426.113 156.073 421.26 153.82C416.58 151.393 412.507 148.62 409.04 145.5C405.573 142.38 402.8 138.653 400.72 134.32C398.813 129.813 397.86 124.353 397.86 117.94C397.86 105.46 402.453 95.6667 411.64 88.56C420.827 81.28 433.307 77.64 449.08 77.64C457.053 77.64 464.68 78.42 471.96 79.98C479.24 81.3667 484.7 82.7533 488.34 84.14L482.62 109.62C479.153 108.06 474.733 106.673 469.36 105.46C463.987 104.073 457.747 103.38 450.64 103.38C444.227 103.38 439.027 104.507 435.04 106.76C431.053 108.84 429.06 112.133 429.06 116.64C429.06 118.893 429.407 120.887 430.1 122.62C430.967 124.353 432.353 126 434.26 127.56C436.167 128.947 438.68 130.42 441.8 131.98C444.92 133.367 448.733 134.84 453.24 136.4C460.693 139.173 467.02 141.947 472.22 144.72C477.42 147.32 481.667 150.353 484.96 153.82C488.427 157.113 490.94 160.927 492.5 165.26C494.06 169.593 494.84 174.793 494.84 180.86C494.84 193.86 489.987 203.74 480.28 210.5C470.747 217.087 457.053 220.38 439.2 220.38C427.24 220.38 417.62 219.34 410.34 217.26C403.06 215.353 397.947 213.793 395 212.58L400.46 186.32C405.14 188.227 410.687 190.047 417.1 191.78C423.687 193.513 431.14 194.38 439.46 194.38Z" fill="url(#paint0_linear)"/>
<path d="M629.268 212.84C623.201 214.4 615.315 215.96 605.608 217.52C595.901 219.253 585.241 220.12 573.628 220.12C562.708 220.12 553.521 218.56 546.068 215.44C538.788 212.32 532.895 207.987 528.388 202.44C524.055 196.893 520.935 190.307 519.028 182.68C517.121 174.88 516.168 166.387 516.168 157.2V81.02H547.628V152.26C547.628 166.82 549.708 177.22 553.868 183.46C558.201 189.7 565.655 192.82 576.228 192.82C580.041 192.82 584.028 192.647 588.188 192.3C592.521 191.953 595.728 191.52 597.808 191V81.02H629.268V212.84Z" fill="url(#paint1_linear)"/>
<path d="M753.03 148.62C753.03 135.273 750.343 124.7 744.97 116.9C739.77 109.1 731.45 105.2 720.01 105.2C714.81 105.2 709.87 105.98 705.19 107.54C700.683 109.1 697.044 110.833 694.27 112.74V191C696.524 191.52 699.383 192.04 702.85 192.56C706.49 192.907 710.823 193.08 715.85 193.08C727.463 193.08 736.563 189.18 743.15 181.38C749.737 173.407 753.03 162.487 753.03 148.62ZM785.27 149.14C785.27 160.06 783.624 169.94 780.33 178.78C777.21 187.447 772.617 194.9 766.55 201.14C760.657 207.38 753.463 212.147 744.97 215.44C736.477 218.733 726.857 220.38 716.11 220.38C705.71 220.38 695.743 219.6 686.21 218.04C676.85 216.48 669.05 214.747 662.81 212.84V20.44L694.27 15.24V85.7C697.91 83.7933 702.33 82.06 707.53 80.5C712.903 78.94 718.797 78.16 725.21 78.16C734.743 78.16 743.237 79.8933 750.69 83.36C758.317 86.6533 764.643 91.42 769.67 97.66C774.697 103.9 778.51 111.44 781.11 120.28C783.884 128.947 785.27 138.567 785.27 149.14Z" fill="url(#paint2_linear)"/>
<path d="M845.253 194.38C853.573 194.38 859.64 193.427 863.453 191.52C867.266 189.44 869.173 185.973 869.173 181.12C869.173 176.613 867.093 172.887 862.933 169.94C858.946 166.993 852.273 163.787 842.913 160.32C837.193 158.24 831.906 156.073 827.053 153.82C822.373 151.393 818.3 148.62 814.833 145.5C811.366 142.38 808.593 138.653 806.513 134.32C804.606 129.813 803.653 124.353 803.653 117.94C803.653 105.46 808.246 95.6667 817.433 88.56C826.62 81.28 839.1 77.64 854.873 77.64C862.846 77.64 870.473 78.42 877.753 79.98C885.033 81.3667 890.493 82.7533 894.133 84.14L888.413 109.62C884.946 108.06 880.526 106.673 875.153 105.46C869.78 104.073 863.54 103.38 856.433 103.38C850.02 103.38 844.82 104.507 840.833 106.76C836.846 108.84 834.853 112.133 834.853 116.64C834.853 118.893 835.2 120.887 835.893 122.62C836.76 124.353 838.146 126 840.053 127.56C841.96 128.947 844.473 130.42 847.593 131.98C850.713 133.367 854.526 134.84 859.033 136.4C866.486 139.173 872.813 141.947 878.013 144.72C883.213 147.32 887.46 150.353 890.753 153.82C894.22 157.113 896.733 160.927 898.293 165.26C899.853 169.593 900.633 174.793 900.633 180.86C900.633 193.86 895.78 203.74 886.073 210.5C876.54 217.087 862.846 220.38 844.993 220.38C833.033 220.38 823.413 219.34 816.133 217.26C808.853 215.353 803.74 213.793 800.793 212.58L806.253 186.32C810.933 188.227 816.48 190.047 822.893 191.78C829.48 193.513 836.933 194.38 845.253 194.38Z" fill="url(#paint3_linear)"/>
<path d="M1046.5 148.88C1046.5 159.627 1044.94 169.42 1041.82 178.26C1038.7 187.1 1034.28 194.64 1028.56 200.88C1022.84 207.12 1015.91 211.973 1007.76 215.44C999.788 218.907 990.948 220.64 981.241 220.64C971.534 220.64 962.694 218.907 954.721 215.44C946.748 211.973 939.901 207.12 934.181 200.88C928.461 194.64 923.954 187.1 920.661 178.26C917.541 169.42 915.981 159.627 915.981 148.88C915.981 138.133 917.541 128.427 920.661 119.76C923.954 110.92 928.461 103.38 934.181 97.14C940.074 90.9 947.008 86.1333 954.981 82.84C962.954 79.3733 971.708 77.64 981.241 77.64C990.774 77.64 999.528 79.3733 1007.5 82.84C1015.65 86.1333 1022.58 90.9 1028.3 97.14C1034.02 103.38 1038.44 110.92 1041.56 119.76C1044.85 128.427 1046.5 138.133 1046.5 148.88ZM1014.26 148.88C1014.26 135.36 1011.31 124.7 1005.42 116.9C999.701 108.927 991.641 104.94 981.241 104.94C970.841 104.94 962.694 108.927 956.801 116.9C951.081 124.7 948.221 135.36 948.221 148.88C948.221 162.573 951.081 173.407 956.801 181.38C962.694 189.353 970.841 193.34 981.241 193.34C991.641 193.34 999.701 189.353 1005.42 181.38C1011.31 173.407 1014.26 162.573 1014.26 148.88Z" fill="url(#paint4_linear)"/>
<path d="M1064.87 149.14C1064.87 139.087 1066.43 129.727 1069.55 121.06C1072.67 112.22 1077.09 104.593 1082.81 98.18C1088.71 91.7667 1095.81 86.74 1104.13 83.1C1112.45 79.46 1121.81 77.64 1132.21 77.64C1145.04 77.64 1157.17 79.98 1168.61 84.66L1161.85 110.4C1158.21 108.84 1154.05 107.54 1149.37 106.5C1144.87 105.46 1140.01 104.94 1134.81 104.94C1122.51 104.94 1113.15 108.84 1106.73 116.64C1100.32 124.267 1097.11 135.1 1097.11 149.14C1097.11 162.66 1100.15 173.407 1106.21 181.38C1112.28 189.18 1122.51 193.08 1136.89 193.08C1142.27 193.08 1147.55 192.56 1152.75 191.52C1157.95 190.48 1162.46 189.18 1166.27 187.62L1170.69 213.62C1167.23 215.353 1161.94 216.913 1154.83 218.3C1147.9 219.687 1140.71 220.38 1133.25 220.38C1121.64 220.38 1111.5 218.647 1102.83 215.18C1094.34 211.54 1087.23 206.6 1081.51 200.36C1075.97 193.947 1071.81 186.407 1069.03 177.74C1066.26 168.9 1064.87 159.367 1064.87 149.14Z" fill="url(#paint5_linear)"/>
<path d="M1220.27 217H1188.81V81.02H1220.27V217ZM1223.65 41.24C1223.65 47.1333 1221.74 51.8133 1217.93 55.28C1214.12 58.7467 1209.61 60.48 1204.41 60.48C1199.04 60.48 1194.44 58.7467 1190.63 55.28C1186.82 51.8133 1184.91 47.1333 1184.91 41.24C1184.91 35.1733 1186.82 30.4067 1190.63 26.94C1194.44 23.4733 1199.04 21.74 1204.41 21.74C1209.61 21.74 1214.12 23.4733 1217.93 26.94C1221.74 30.4067 1223.65 35.1733 1223.65 41.24Z" fill="url(#paint6_linear)"/>
<path d="M1301.74 194.9C1311.45 194.9 1318.82 194.38 1323.84 193.34V158.5C1322.11 157.98 1319.6 157.46 1316.3 156.94C1313.01 156.42 1309.37 156.16 1305.38 156.16C1301.92 156.16 1298.36 156.42 1294.72 156.94C1291.26 157.46 1288.05 158.413 1285.1 159.8C1282.33 161.187 1280.08 163.18 1278.34 165.78C1276.61 168.207 1275.74 171.327 1275.74 175.14C1275.74 182.593 1278.08 187.793 1282.76 190.74C1287.44 193.513 1293.77 194.9 1301.74 194.9ZM1299.14 77.64C1309.54 77.64 1318.3 78.94 1325.4 81.54C1332.51 84.14 1338.14 87.78 1342.3 92.46C1346.64 97.14 1349.67 102.86 1351.4 109.62C1353.31 116.207 1354.26 123.487 1354.26 131.46V213.88C1349.41 214.92 1342.04 216.133 1332.16 217.52C1322.46 219.08 1311.45 219.86 1299.14 219.86C1291 219.86 1283.54 219.08 1276.78 217.52C1270.02 215.96 1264.22 213.447 1259.36 209.98C1254.68 206.513 1250.96 202.007 1248.18 196.46C1245.58 190.913 1244.28 184.067 1244.28 175.92C1244.28 168.12 1245.76 161.533 1248.7 156.16C1251.82 150.787 1255.98 146.453 1261.18 143.16C1266.38 139.693 1272.36 137.267 1279.12 135.88C1286.06 134.32 1293.25 133.54 1300.7 133.54C1304.17 133.54 1307.81 133.8 1311.62 134.32C1315.44 134.667 1319.51 135.36 1323.84 136.4V131.2C1323.84 127.56 1323.41 124.093 1322.54 120.8C1321.68 117.507 1320.12 114.647 1317.86 112.22C1315.78 109.62 1312.92 107.627 1309.28 106.24C1305.82 104.853 1301.4 104.16 1296.02 104.16C1288.74 104.16 1282.07 104.68 1276 105.72C1269.94 106.76 1265 107.973 1261.18 109.36L1257.28 83.88C1261.27 82.4933 1267.08 81.1067 1274.7 79.72C1282.33 78.3333 1290.48 77.64 1299.14 77.64Z" fill="url(#paint7_linear)"/>
<path d="M1385.77 217V20.44L1417.23 15.24V217H1385.77Z" fill="url(#paint8_linear)"/>
<path fill-rule="evenodd" clip-rule="evenodd" d="M300 150C300 232.843 232.843 300 150 300C67.1573 300 0 232.843 0 150C0 67.1573 67.1573 0 150 0C232.843 0 300 67.1573 300 150ZM149.489 31.9888C118.837 31.9888 93.9888 56.837 93.9888 87.4888V123.489C93.9888 154.141 118.837 178.989 149.489 178.989C153.791 178.989 157.979 178.499 162 177.573C164.415 177.017 165.092 174.036 163.3 172.325L163 172.038L131.027 141.5C126.069 136.684 122.989 129.946 122.989 122.489V88.4888C122.989 73.8532 134.853 61.9888 149.489 61.9888C164.124 61.9888 175.989 73.8532 175.989 88.4888V100C175.989 102.209 177.78 104 179.989 104H200.989C203.198 104 204.989 102.209 204.989 100V87.4888C204.989 56.837 180.141 31.9888 149.489 31.9888ZM205 209.5C205 240.152 180.152 265 149.5 265C118.848 265 94 240.152 94 209.5V197C94 194.791 95.7909 193 98 193H119C121.209 193 123 194.791 123 197V208.5C123 223.136 134.864 235 149.5 235C164.136 235 176 223.136 176 208.5V174.5C176 167.042 172.919 160.304 167.961 155.489L135.989 124.951L135.688 124.664C133.896 122.952 134.574 119.972 136.989 119.416C141.01 118.49 145.198 118 149.5 118C180.152 118 205 142.848 205 173.5V209.5Z" fill="url(#paint9_linear)"/>
<defs>
<linearGradient id="paint0_linear" x1="914.419" y1="-29" x2="914.419" y2="270" gradientUnits="userSpaceOnUse">
<stop offset="0.109978" stop-color="#F40183"/>
<stop offset="1" stop-color="#7D0495"/>
</linearGradient>
<linearGradient id="paint1_linear" x1="914.419" y1="-29" x2="914.419" y2="270" gradientUnits="userSpaceOnUse">
<stop offset="0.109978" stop-color="#F40183"/>
<stop offset="1" stop-color="#7D0495"/>
</linearGradient>
<linearGradient id="paint2_linear" x1="914.419" y1="-29" x2="914.419" y2="270" gradientUnits="userSpaceOnUse">
<stop offset="0.109978" stop-color="#F40183"/>
<stop offset="1" stop-color="#7D0495"/>
</linearGradient>
<linearGradient id="paint3_linear" x1="914.419" y1="-29" x2="914.419" y2="270" gradientUnits="userSpaceOnUse">
<stop offset="0.109978" stop-color="#F40183"/>
<stop offset="1" stop-color="#7D0495"/>
</linearGradient>
<linearGradient id="paint4_linear" x1="914.419" y1="-29" x2="914.419" y2="270" gradientUnits="userSpaceOnUse">
<stop offset="0.109978" stop-color="#F40183"/>
<stop offset="1" stop-color="#7D0495"/>
</linearGradient>
<linearGradient id="paint5_linear" x1="914.419" y1="-29" x2="914.419" y2="270" gradientUnits="userSpaceOnUse">
<stop offset="0.109978" stop-color="#F40183"/>
<stop offset="1" stop-color="#7D0495"/>
</linearGradient>
<linearGradient id="paint6_linear" x1="914.419" y1="-29" x2="914.419" y2="270" gradientUnits="userSpaceOnUse">
<stop offset="0.109978" stop-color="#F40183"/>
<stop offset="1" stop-color="#7D0495"/>
</linearGradient>
<linearGradient id="paint7_linear" x1="914.419" y1="-29" x2="914.419" y2="270" gradientUnits="userSpaceOnUse">
<stop offset="0.109978" stop-color="#F40183"/>
<stop offset="1" stop-color="#7D0495"/>
</linearGradient>
<linearGradient id="paint8_linear" x1="914.419" y1="-29" x2="914.419" y2="270" gradientUnits="userSpaceOnUse">
<stop offset="0.109978" stop-color="#F40183"/>
<stop offset="1" stop-color="#7D0495"/>
</linearGradient>
<linearGradient id="paint9_linear" x1="150" y1="0" x2="150" y2="300" gradientUnits="userSpaceOnUse">
<stop stop-color="#F50083"/>
<stop offset="1" stop-color="#720497"/>
</linearGradient>
</defs>
</svg>
